<?xml version="1.0" encoding="UTF-8" standalone="no"?>
<svg
   role="img"
   viewBox="0 0 24 24"
   version="1.1"
   id="svg1"
   sodipodi:docname="fedora-light.svg"
   inkscape:version="1.3.2 (091e20ef0f, 2023-11-25)"
   xmlns:inkscape="http://www.inkscape.org/namespaces/inkscape"
   xmlns:sodipodi="http://sodipodi.sourceforge.net/DTD/sodipodi-0.dtd"
   xmlns="http://www.w3.org/2000/svg"
   xmlns:svg="http://www.w3.org/2000/svg"
   xmlns:rdf="http://www.w3.org/1999/02/22-rdf-syntax-ns#"
   xmlns:cc="http://creativecommons.org/ns#"
   xmlns:dc="http://purl.org/dc/elements/1.1/">
  <defs
     id="defs1" />
  <sodipodi:namedview
     id="namedview1"
     pagecolor="#ffffff"
     bordercolor="#000000"
     borderopacity="0.25"
     inkscape:showpageshadow="2"
     inkscape:pageopacity="0.0"
     inkscape:pagecheckerboard="0"
     inkscape:deskcolor="#d1d1d1"
     showgrid="false"
     inkscape:zoom="34.125"
     inkscape:cx="12"
     inkscape:cy="12"
     inkscape:window-width="1900"
     inkscape:window-height="1025"
     inkscape:window-x="0"
     inkscape:window-y="0"
     inkscape:window-maximized="1"
     inkscape:current-layer="svg1" />
  <title
     id="title1">Fedora</title>
  <path
     d="M12.001 0C5.376 0 .008 5.369.004 11.992H.002v9.287h.002A2.726 2.726 0 0 0 2.73 24h9.275c6.626-.004 11.993-5.372 11.993-11.997C23.998 5.375 18.628 0 12 0zm2.431 4.94c2.015 0 3.917 1.543 3.917 3.671 0 .197.001.395-.03.619a1.002 1.002 0 0 1-1.137.893 1.002 1.002 0 0 1-.842-1.175 2.61 2.61 0 0 0 .013-.337c0-1.207-.987-1.672-1.92-1.672-.934 0-1.775.784-1.777 1.672.016 1.027 0 2.046 0 3.07l1.732-.012c1.352-.028 1.368 2.009.016 1.998l-1.748.013c-.004.826.006.677.002 1.093 0 0 .015 1.01-.016 1.776-.209 2.25-2.124 4.046-4.424 4.046-2.438 0-4.448-1.993-4.448-4.437.073-2.515 2.078-4.492 4.603-4.469l1.409-.01v1.996l-1.409.013h-.007c-1.388.04-2.577.984-2.6 2.47a2.438 2.438 0 0 0 2.452 2.439c1.356 0 2.441-.987 2.441-2.437l-.001-7.557c0-.14.005-.252.02-.407.23-1.848 1.883-3.256 3.754-3.256z"
     id="path1"
     style="fill:#ffffff" />
  <metadata
     id="metadata1">
    <rdf:RDF>
      <cc:Work
         rdf:about="">
        <dc:title>Fedora</dc:title>
      </cc:Work>
    </rdf:RDF>
  </metadata>
</svg>
