<?xml version="1.0" encoding="UTF-8" standalone="no"?>
<svg
   role="img"
   viewBox="0 0 24 24"
   version="1.1"
   id="svg1"
   sodipodi:docname="zedindustries-dark.svg"
   inkscape:version="1.3.2 (091e20ef0f, 2023-11-25)"
   xmlns:inkscape="http://www.inkscape.org/namespaces/inkscape"
   xmlns:sodipodi="http://sodipodi.sourceforge.net/DTD/sodipodi-0.dtd"
   xmlns="http://www.w3.org/2000/svg"
   xmlns:svg="http://www.w3.org/2000/svg"
   xmlns:rdf="http://www.w3.org/1999/02/22-rdf-syntax-ns#"
   xmlns:cc="http://creativecommons.org/ns#"
   xmlns:dc="http://purl.org/dc/elements/1.1/">
  <defs
     id="defs1" />
  <sodipodi:namedview
     id="namedview1"
     pagecolor="#ffffff"
     bordercolor="#000000"
     borderopacity="0.25"
     inkscape:showpageshadow="2"
     inkscape:pageopacity="0.0"
     inkscape:pagecheckerboard="0"
     inkscape:deskcolor="#d1d1d1"
     showgrid="false"
     inkscape:zoom="34.125"
     inkscape:cx="12"
     inkscape:cy="12"
     inkscape:window-width="1900"
     inkscape:window-height="1025"
     inkscape:window-x="0"
     inkscape:window-y="0"
     inkscape:window-maximized="1"
     inkscape:current-layer="svg1" />
  <title
     id="title1">Zed Industries</title>
  <path
     d="M2.25 1.5a.75.75 0 0 0-.75.75v16.5H0V2.25A2.25 2.25 0 0 1 2.25 0h20.095c1.002 0 1.504 1.212.795 1.92L10.764 14.298h3.486V12.75h1.5v1.922a1.125 1.125 0 0 1-1.125 1.125H9.264l-2.578 2.578h11.689V9h1.5v9.375a1.5 1.5 0 0 1-1.5 1.5H5.185L2.562 22.5H21.75a.75.75 0 0 0 .75-.75V5.25H24v16.5A2.25 2.25 0 0 1 21.75 24H1.655C.653 24 .151 22.788.86 22.08L13.19 9.75H9.75v1.5h-1.5V9.375A1.125 1.125 0 0 1 9.375 8.25h5.314l2.625-2.625H5.625V15h-1.5V5.625a1.5 1.5 0 0 1 1.5-1.5h13.19L21.438 1.5z"
     id="path1" />
  <metadata
     id="metadata1">
    <rdf:RDF>
      <cc:Work
         rdf:about="">
        <dc:title>Zed Industries</dc:title>
      </cc:Work>
    </rdf:RDF>
  </metadata>
</svg>
